<svg width="43" height="53" viewBox="0 0 43 53" fill="none" xmlns="http://www.w3.org/2000/svg">
<mask id="mask0_2_9" style="mask-type:alpha" maskUnits="userSpaceOnUse" x="0" y="0" width="34" height="53">
<path d="M0 52.7271L7.21813 52.7271C21.7783 52.7271 33.5817 40.9238 33.5817 26.3636L33.5817 16.7909C33.5817 7.51754 26.0642 9.908e-06 16.7908 9.0973e-06V9.0973e-06C7.51752 8.2866e-06 3.95235e-06 7.51752 3.14165e-06 16.7908L0 52.7271Z" fill="#C4C4C4"/>
</mask>
<g mask="url(#mask0_2_9)">
<rect x="-28.9498" y="-34.0447" width="77.1993" height="115.799" fill="url(#paint0_linear_2_9)"/>
</g>
<mask id="mask1_2_9" style="mask-type:alpha" maskUnits="userSpaceOnUse" x="0" y="14" width="43" height="39">
<path d="M0 52.7272L23.9704 52.7272C34.4801 52.7272 43 44.2074 43 33.6976V33.6976C43 23.1878 34.4801 14.668 23.9704 14.668L21.5 14.668C9.62588 14.668 2.48572e-06 24.2938 1.44766e-06 36.168L0 52.7272Z" fill="#C4C4C4"/>
</mask>
<g mask="url(#mask1_2_9)">
<rect x="-64.6928" y="-2.16164" width="107.693" height="71.7953" fill="url(#paint1_linear_2_9)"/>
</g>
<defs>
<linearGradient id="paint0_linear_2_9" x1="9.64987" y1="-34.0447" x2="9.64987" y2="81.7542" gradientUnits="userSpaceOnUse">
<stop stop-color="white"/>
<stop offset="1" stop-color="white" stop-opacity="0"/>
</linearGradient>
<linearGradient id="paint1_linear_2_9" x1="-10.8463" y1="-2.16164" x2="-10.8463" y2="69.6337" gradientUnits="userSpaceOnUse">
<stop stop-color="white"/>
<stop offset="1" stop-color="white" stop-opacity="0"/>
</linearGradient>
</defs>
</svg>
